# xmcd
#
# Track frame offsets: 
#        150
#        16504
#        29933
#        47937
#        61967
#        76297
#        90776
#        102594
#        117185
#        135565
#        146519
#        166286
#        178402
#        191944
#
# Disc length: 2932 seconds
#
# Revision: 0
# Processed by: cddbd v1.5.2PL0 Copyright (c) Steve Scherf et al.
# Submitted via: ExactAudioCopy v0.99pb4
#
DISCID=c00b720e
DTITLE=Johhny Shines - Traditional Delta Blues
DYEAR=1993
DGENRE=Blues
TTITLE0=Sitting On Top Of The World
TTITLE1=Ramblin' Blues
TTITLE2=Tell Me Mama
TTITLE3=Bumble Bee Blues
TTITLE4=It Ain't Nobody's Fault But Mine
TTITLE5=Arguing And Boodling
TTITLE6=Delta Pine
TTITLE7=Pony Blues
TTITLE8=Milk Cow Blues
TTITLE9=Dynaflow Blues
TTITLE10=Glad Rags
TTITLE11=Pet Rabbit
TTITLE12=Little Wolf
TTITLE13=Jim String
EXTD=
EXTT0=
EXTT1=
EXTT2=
EXTT3=
EXTT4=
EXTT5=
EXTT6=
EXTT7=
EXTT8=
EXTT9=
EXTT10=
EXTT11=
EXTT12=
EXTT13=
PLAYORDER=
